<mxfile host="app.diagrams.net" modified="2022-10-11T17:39:45.630Z" agent="5.0 (Windows NT 10.0; Win64; x64) AppleWebKit/537.36 (KHTML, like Gecko) Chrome/106.0.0.0 Safari/537.36 Edg/106.0.1370.37" etag="3Bekm_nXLz68Wx9YixiU" version="20.4.0" type="github">
  <diagram id="C5RBs43oDa-KdzZeNtuy" name="Page-1">
    <mxGraphModel dx="1185" dy="655" grid="1" gridSize="10" guides="1" tooltips="1" connect="1" arrows="1" fold="1" page="1" pageScale="1" pageWidth="827" pageHeight="1169" math="0" shadow="0">
      <root>
        <mxCell id="WIyWlLk6GJQsqaUBKTNV-0" />
        <mxCell id="WIyWlLk6GJQsqaUBKTNV-1" parent="WIyWlLk6GJQsqaUBKTNV-0" />
        <mxCell id="9ooVhS_tgrzWWUu7JEqA-0" value="fib" style="swimlane;fontStyle=1;align=center;verticalAlign=middle;childLayout=stackLayout;horizontal=1;startSize=29;horizontalStack=0;resizeParent=1;resizeParentMax=0;resizeLast=0;collapsible=0;marginBottom=0;html=1;" vertex="1" parent="WIyWlLk6GJQsqaUBKTNV-1">
          <mxGeometry x="344" y="200" width="155" height="59" as="geometry" />
        </mxCell>
        <mxCell id="9ooVhS_tgrzWWUu7JEqA-3" value="Calculate Fibonacci Series" style="text;html=1;align=center;verticalAlign=middle;resizable=0;points=[];autosize=1;strokeColor=none;fillColor=none;" vertex="1" parent="9ooVhS_tgrzWWUu7JEqA-0">
          <mxGeometry y="29" width="155" height="30" as="geometry" />
        </mxCell>
        <mxCell id="9ooVhS_tgrzWWUu7JEqA-5" value="greater" style="swimlane;fontStyle=1;align=center;verticalAlign=middle;childLayout=stackLayout;horizontal=1;startSize=29;horizontalStack=0;resizeParent=1;resizeParentMax=0;resizeLast=0;collapsible=0;marginBottom=0;html=1;" vertex="1" parent="WIyWlLk6GJQsqaUBKTNV-1">
          <mxGeometry x="316.5" y="330" width="210" height="80" as="geometry" />
        </mxCell>
        <mxCell id="9ooVhS_tgrzWWUu7JEqA-6" value="Find out greater number out of two" style="text;html=1;strokeColor=none;fillColor=none;align=center;verticalAlign=middle;spacingLeft=4;spacingRight=4;overflow=hidden;rotatable=0;points=[[0,0.5],[1,0.5]];portConstraint=eastwest;" vertex="1" parent="9ooVhS_tgrzWWUu7JEqA-5">
          <mxGeometry y="29" width="210" height="51" as="geometry" />
        </mxCell>
        <mxCell id="9ooVhS_tgrzWWUu7JEqA-8" style="edgeStyle=orthogonalEdgeStyle;rounded=0;orthogonalLoop=1;jettySize=auto;html=1;" edge="1" parent="WIyWlLk6GJQsqaUBKTNV-1" source="9ooVhS_tgrzWWUu7JEqA-3" target="9ooVhS_tgrzWWUu7JEqA-5">
          <mxGeometry relative="1" as="geometry" />
        </mxCell>
        <mxCell id="9ooVhS_tgrzWWUu7JEqA-12" value="Parent Class" style="text;html=1;align=center;verticalAlign=middle;resizable=0;points=[];autosize=1;strokeColor=none;fillColor=none;" vertex="1" parent="WIyWlLk6GJQsqaUBKTNV-1">
          <mxGeometry x="344" y="170" width="90" height="30" as="geometry" />
        </mxCell>
        <mxCell id="9ooVhS_tgrzWWUu7JEqA-13" value="Child Class" style="text;html=1;align=center;verticalAlign=middle;resizable=0;points=[];autosize=1;strokeColor=none;fillColor=none;" vertex="1" parent="WIyWlLk6GJQsqaUBKTNV-1">
          <mxGeometry x="316.5" y="300" width="80" height="30" as="geometry" />
        </mxCell>
      </root>
    </mxGraphModel>
  </diagram>
</mxfile>
